@startuml
class jqt {
}
class rhn {
}
class rsh {
}
class xhk {
}
class cmg {
}
class bvb {
}
class pzl {
}
class qnr {
}
class ntq {
}
class nvd {
}
class lsr {
}
class rzs {
}
class frs {
}

jqt --> rhn
jqt --> xhk
jqt --> nvd
rsh --> frs
rsh --> pzl
rsh --> lsr
xhk --> hfx
cmg --> qnr
cmg --> nvd
cmg --> lhk
cmg --> bvb
rhn --> xhk
rhn --> bvb
rhn --> hfx
bvb --> xhk
bvb --> hfx
pzl --> lsr
pzl --> hfx
pzl --> nvd
qnr --> nvd
ntq --> jqt
ntq --> hfx
ntq --> bvb
ntq --> xhk
nvd --> lhk
lsr --> lhk
rzs --> qnr
rzs --> cmg
rzs --> lsr
rzs --> rsh
frs --> qnr
frs --> lhk
frs --> lsr
@enduml
